<?xml version="1.0"?>
<svg version="1.1" xmlns="http://www.w3.org/2000/svg" width="112px" height="70px" style=""><path fill="#0095ff" d="M10.19140625,54.7265625q0.078125-4.08203125,0.341796875-8.14453125t0.458984375-8.14453125q0.0390625-1.5625,0.0390625-2.841796875t0.126953125-2.216796875t0.46875-1.435546875t1.142578125-0.498046875q0.68359375,0,1.03515625,0.1953125t0.537109375,0.498046875t0.224609375,0.68359375t0.0390625,0.771484375q0,0.56640625,0.0390625,1.123046875t0.0390625,1.123046875q0,4.12109375-0.224609375,8.22265625t-0.224609375,8.26171875q0,0.60546875,0.01953125,1.220703125t0.01953125,1.259765625q0,0.234375-0.21484375,0.390625t-0.537109375,0.263671875t-0.68359375,0.146484375t-0.595703125,0.0390625q-0.2734375,0-0.615234375-0.0390625t-0.6640625-0.166015625t-0.546875-0.302734375t-0.224609375-0.41015625z M11.28515625,28.2421875q0-0.1953125,0.05859375-0.439453125t0.13671875-0.439453125q0.0390625-0.234375,0.1171875-0.80078125t0.283203125-1.103515625t0.56640625-0.95703125t1.025390625-0.419921875l0.37109375,0q0.3125,0.078125,0.634765625,0.1953125t0.322265625,0.56640625q0,0.1953125-0.01953125,0.37109375t-0.05859375,0.390625q-0.15625,1.15234375-0.302734375,1.81640625t-0.341796875,1.005859375t-0.498046875,0.439453125t-0.771484375,0.13671875q-0.15625,0-0.419921875-0.01953125t-0.5078125-0.09765625t-0.419921875-0.244140625t-0.17578125-0.400390625z M18.7982421875,48.76953125q0-4.23828125,0.380859375-8.486328125t1.591796875-8.369140625q0.3515625-1.23046875,0.91796875-2.431640625t1.38671875-2.138671875t1.953125-1.5234375t2.6953125-0.5859375l0.41015625,0.0390625q1.6796875,0.234375,2.48046875,1.357421875t0.80078125,2.802734375q0,0.44921875-0.107421875,1.123046875t-0.341796875,1.298828125t-0.634765625,1.064453125t-1.005859375,0.439453125q-0.2734375-0.0390625-0.498046875-0.09765625t-0.419921875-0.25390625q0.3125-0.68359375,0.556640625-1.42578125t0.244140625-1.69921875q0-0.3515625-0.05859375-0.8984375t-0.224609375-1.083984375t-0.439453125-0.9375t-0.76171875-0.400390625q-1.23046875,0-2.0703125,1.376953125t-1.40625,3.515625t-0.83984375,4.7265625t-0.419921875,5t-0.166015625,4.35546875t-0.01953125,2.744140625q0,0.9375-0.01953125,2.0703125l0,0.25390625q0.01953125,0.99609375,0.13671875,1.89453125q0.15625,1.015625,0.60546875,1.7578125t1.40625,0.859375q0.29296875,0.0390625,0.56640625,0.0390625q1.1328125,0,2.05078125-0.64453125q1.1328125-0.80078125,2.01171875-2.080078125t1.5625-2.8125t1.259765625-2.900390625t1.123046875-2.265625t1.1328125-0.8984375q0.1953125,0,0.5859375,0.078125t0.390625,0.37109375q0,0.078125-0.0390625,0.21484375t-0.09765625,0.21484375q-0.52734375,2.0703125-1.337890625,4.296875t-2.0703125,4.052734375t-3.0859375,2.978515625t-4.384765625,1.15234375q-1.8359375,0-2.978515625-0.693359375t-1.7578125-1.85546875t-0.83984375-2.626953125t-0.224609375-2.96875z M39.612109375,27.71484375q0-0.234375,0.185546875-0.37109375t0.439453125-0.205078125t0.517578125-0.087890625t0.458984375-0.05859375q0.87890625-0.1171875,2.28515625-0.29296875t2.880859375-0.341796875t2.861328125-0.283203125t2.2265625-0.1171875q0.390625,0,0.9765625,0.13671875t0.625,0.6640625l-0.21484375,0.37109375q-1.328125,3.0078125-2.724609375,6.181640625t-2.63671875,6.455078125t-2.197265625,6.62109375t-1.30859375,6.69921875q0.3125,0.0390625,1.15234375,0.078125t1.904296875,0.09765625t2.197265625,0.17578125t2.080078125,0.263671875t1.54296875,0.341796875t0.595703125,0.46875q0,0.3125-0.21484375,0.498046875t-0.537109375,0.283203125t-0.6640625,0.146484375t-0.576171875,0.048828125q-0.390625,0-1.435546875-0.01953125t-2.34375-0.087890625t-2.705078125-0.185546875t-2.568359375-0.29296875t-1.9140625-0.419921875t-0.751953125-0.556640625q0-1.07421875,0.478515625-3.18359375t1.259765625-4.7265625t1.73828125-5.458984375t1.93359375-5.380859375t1.85546875-4.521484375t1.484375-2.900390625q-1.953125,0.1171875-3.876953125,0.341796875t-3.876953125,0.224609375q-0.2734375,0-0.703125-0.078125t-0.4296875-0.52734375z"/><path fill="#8f8f8f" d="M56.833984375,48.75390625q0-0.396484375,0.0341796875-0.833984375t0.0615234375-0.8203125l0.08203125-2.05078125q0.13671875-2.4609375,0.3349609375-4.83984375t0.3349609375-4.8125q0.08203125-1.33984375,0.123046875-2.6318359375t0.123046875-2.6318359375q-0.0546875-0.109375-0.0546875-0.150390625q0-0.19140625,0.1435546875-0.30078125t0.3349609375-0.1845703125t0.4033203125-0.1025390625t0.3212890625-0.02734375l0.314453125,0q0.423828125,0.0546875,0.615234375,0.2666015625t0.24609375,0.505859375t0.02734375,0.62890625t-0.02734375,0.6220703125q0,1.982421875-0.095703125,4.0400390625t-0.21875,4.12890625t-0.2255859375,4.142578125t-0.1025390625,4.0947265625l0,0.95703125q0,0.642578125-0.3623046875,0.84765625t-1.0048828125,0.205078125q-0.560546875,0-0.984375-0.24609375t-0.423828125-0.806640625z M63.10486328125,43.900390625q0-0.9296875,0.2529296875-1.791015625t0.7587890625-1.5380859375t1.2646484375-1.080078125t1.7568359375-0.4033203125q0.615234375,0,1.3603515625,0.1845703125t1.4013671875,0.546875t1.09375,0.9228515625t0.4375,1.28515625q0,0.341796875-0.1162109375,0.51953125t-0.4716796875,0.177734375l-0.150390625-0.02734375q0.396484375,1.06640625,0.68359375,2.1875t0.560546875,2.2421875q0.109375,0.21875,0.1640625,0.3896484375t0.0546875,0.3349609375q0,0.21875-0.123046875,0.3623046875t-0.3212890625,0.2119140625t-0.41015625,0.095703125t-0.3759765625,0.02734375q-0.587890625,0-0.8818359375-0.205078125t-0.423828125-0.560546875t-0.1572265625-0.7998046875t-0.109375-0.8955078125q-0.1640625,0.533203125-0.4306640625,1.0390625t-0.62890625,0.9091796875t-0.8544921875,0.642578125t-1.107421875,0.2392578125q-0.90234375,0-1.517578125-0.51953125t-0.9912109375-1.2783203125t-0.546875-1.6201171875t-0.1708984375-1.599609375z M65.04626953125,43.708984375q0,0.505859375,0.068359375,1.06640625t0.2255859375,1.107421875t0.4033203125,1.0322265625t0.615234375,0.8544921875q0.669921875-0.724609375,0.9912109375-1.763671875t0.57421875-2.0029296875t0.57421875-1.654296875t0.9912109375-0.6904296875q0.423828125,0,0.7109375,0.150390625q-0.13671875-0.341796875-0.451171875-0.6630859375t-0.7041015625-0.587890625t-0.806640625-0.4375t-0.7861328125-0.1708984375q-0.109375,0-0.2529296875,0.0341796875t-0.2255859375,0.0068359375q-0.560546875,0.1640625-0.9228515625,0.5673828125t-0.587890625,0.9501953125t-0.3212890625,1.12109375t-0.095703125,1.080078125z M74.9675390625,43.96875l0-0.396484375q0-0.4921875,0.02734375-0.9296875q0.02734375-0.615234375,0.02734375-1.01171875q0-0.21875,0.02734375-0.4990234375t0.13671875-0.4443359375q0.13671875-0.13671875,0.3212890625-0.2802734375t0.4033203125-0.1435546875q0.697265625,0,1.09375,0.1572265625t0.423828125,0.6494140625l0.0546875,0.423828125q0.24609375-0.587890625,0.65625-1.4560546875t0.9501953125-1.654296875t1.216796875-1.33984375t1.4287109375-0.5537109375q0.697265625,0,1.1484375,0.65625t0.7177734375,1.6748046875t0.3759765625,2.26953125t0.150390625,2.4541015625t0.0546875,2.1943359375t0.095703125,1.4970703125q0.0546875,0.423828125,0.1845703125,0.8955078125t0.1298828125,0.8681640625q0,0.109375-0.1572265625,0.2119140625t-0.3349609375,0.1708984375t-0.3623046875,0.109375t-0.2666015625,0.041015625q-0.533203125,0-0.7587890625-0.7998046875t-0.2802734375-2.0029296875t-0.0546875-2.6044921875t-0.095703125-2.6044921875t-0.3896484375-2.0029296875t-0.9365234375-0.8271484375q-0.587890625,0-1.216796875,0.7587890625t-1.080078125,2.0166015625q-0.4375,1.2578125-0.6015625,2.857421875q-0.0546875,0.505859375-0.0546875,1.01171875q0,1.107421875,0.232421875,2.21484375q0.02734375,0.19140625-0.1572265625,0.287109375t-0.4580078125,0.150390625t-0.5537109375,0.068359375t-0.4306640625,0.013671875q-0.533203125,0-0.8544921875-0.3759765625t-0.4990234375-0.9638671875t-0.2392578125-1.3193359375t-0.0751953125-1.4423828125z M87.39076171875,43.736328125q0-1.06640625,0.2255859375-1.9345703125t0.7177734375-1.4697265625t1.2919921875-0.9365234375t1.9482421875-0.3349609375q0.642578125,0,1.3125,0.1708984375t1.1484375,0.6357421875q0-0.2734375,0.0546875-1.1279296875t0.13671875-1.9892578125t0.1708984375-2.37890625t0.1572265625-2.310546875t0.123046875-1.791015625t0.08203125-0.8203125q0.13671875-0.396484375,0.505859375-0.4716796875t0.697265625-0.0751953125q0.861328125,0,1.0595703125,0.2734375t0.1982421875,1.09375q0,2.994140625-0.2666015625,5.9609375t-0.2666015625,5.9609375q0,1.927734375,0.0751953125,3.8759765625t0.5400390625,3.8349609375l0.150390625,0.13671875l0.08203125,0.24609375l-0.205078125,0.314453125q-0.51953125,0.328125-1.203125,0.328125l-0.0546875,0q-0.697265625,0-1.28515625-0.328125q-0.21875-0.13671875-0.3623046875-0.8134765625t-0.2255859375-1.490234375t-0.123046875-1.5654296875t-0.068359375-1.06640625q-0.478515625,1.09375-1.3056640625,1.8798828125t-2.0849609375,0.7861328125q-0.984375,0-1.61328125-0.423828125t-0.9775390625-1.080078125t-0.4921875-1.4697265625t-0.1435546875-1.6201171875z M89.04505859375,43.818359375q0,0.314453125,0.0751953125,0.9296875t0.2392578125,1.23046875t0.4580078125,1.09375t0.7724609375,0.478515625q0.642578125-0.314453125,1.162109375-1.0458984375t0.8955078125-1.61328125t0.587890625-1.763671875t0.2119140625-1.5244140625q0-0.806640625-0.587890625-1.33984375t-1.408203125-0.533203125q-0.24609375,0-0.4990234375,0.095703125t-0.4716796875,0.21875q-0.505859375,0.478515625-0.7861328125,0.8681640625t-0.423828125,0.806640625t-0.1845703125,0.9228515625t-0.041015625,1.17578125z"/></svg>
